<svg xmlns="http://www.w3.org/2000/svg" viewBox="0 0 22 17.286"><defs><linearGradient id="e" x1="6.307" x2="19.958" y1="6.938" y2="18.097" gradientUnits="userSpaceOnUse"><stop offset=".127" stop-color="#fff"/><stop offset=".275" stop-color="#f5f7f8"/><stop offset=".52" stop-color="#dce1e7"/><stop offset=".831" stop-color="#b3becb"/><stop offset=".93" stop-color="#a5b2c2"/></linearGradient><linearGradient id="b" x1="-3.017" x2="10.205" y1="3.583" y2="7.714" gradientUnits="userSpaceOnUse"><stop offset=".223"/><stop offset="1" stop-color="#fff"/></linearGradient><linearGradient id="a" x1="-55.397" x2="106.003" y1="2801.002" y2="2962.736" gradientTransform="translate(0 -2884.716)" gradientUnits="userSpaceOnUse"><stop offset="0" stop-color="#05815d"/><stop offset="1" stop-color="#0c575f"/></linearGradient><linearGradient id="d" x1="0" x2="22" y1="-86.308" y2="-86.308" gradientTransform="matrix(1 0 0 -1 0 -76.29)" gradientUnits="userSpaceOnUse"><stop offset="0" stop-color="#3f4245"/><stop offset="1" stop-color="#666b70"/></linearGradient><filter id="h" width="10.68" height="12.72" x="5.972" y="4.153" filterUnits="userSpaceOnUse"><feOffset dy=".2"/><feGaussianBlur result="l" stdDeviation=".4"/><feFlood flood-color="#000" flood-opacity=".24"/><feComposite in2="l" operator="in"/><feComposite in="SourceGraphic"/></filter><mask id="c" width="200" height="123.214" x="-69.309" y="-69.831" maskUnits="userSpaceOnUse"><path d="M8.75-62.35a20.54 20.54 0 0 0-15.853-7.48h-51.492c-5.917 0-10.714 4.796-10.714 10.713V42.67c0 5.917 4.797 10.714 10.714 10.714h178.572c5.917 0 10.714-4.797 10.714-10.714v-80.235c0-5.917-4.797-10.714-10.714-10.714h-99.64z" style="fill:url(#a);fill-rule:evenodd"/></mask></defs><g style="isolation:isolate"><path d="M8.586.823A2.26 2.26 0 0 0 6.843 0H1.179C.528 0 0 .528 0 1.179v11.196c0 .65.528 1.179 1.179 1.179H20.82c.651 0 1.179-.528 1.179-1.179V3.549c0-.65-.528-1.178-1.179-1.178H9.861z" style="fill:#292b2e;fill-rule:evenodd"/><path d="M8.586.823A2.26 2.26 0 0 0 6.843 0H1.179C.528 0 0 .528 0 1.179v11.196c0 .65.528 1.179 1.179 1.179H20.82c.651 0 1.179-.528 1.179-1.179V3.549c0-.65-.528-1.178-1.179-1.178H9.861z" style="fill:url(#b);fill-rule:evenodd;mix-blend-mode:overlay;opacity:.49"/><g style="mask:url(#c)"><path d="M7.444 3.929c.488 0 .964-.159 1.355-.452l.97-.727H20.82c.651 0 1.179.528 1.179 1.179v8.446c0 .65-.528 1.179-1.179 1.179H1.18C.528 13.554 0 13.026 0 12.375V5.107c0-.65.528-1.178 1.179-1.178z" style="fill-rule:evenodd"/></g><path d="M7.444 3.929c.488 0 .964-.159 1.355-.452l.97-.727H20.82c.651 0 1.179.528 1.179 1.179v12.178c0 .65-.528 1.179-1.179 1.179H1.18C.528 17.286 0 16.758 0 16.107v-11c0-.65.528-1.178 1.179-1.178z" style="fill:url(#d);fill-rule:evenodd"/><path d="M15.334 9.555V6.622h-2.2l-.732-.734h-2.2v1.467h-2.2v-2.2h-.733V15.42h.733v-2.2h2.2v1.467h5.132v-2.933h-2.2l-.732-.733h-2.2v1.466h-2.2V8.088h2.2v1.467z" style="fill:url(#e);filter:url(#h);opacity:.63"/></g></svg>