<?xml version="1.0" encoding="utf-8"?>
<!-- Generator: Adobe Illustrator 27.5.0, SVG Export Plug-In . SVG Version: 6.00 Build 0)  -->
<svg version="1.1" id="Layer_1" xmlns="http://www.w3.org/2000/svg" xmlns:xlink="http://www.w3.org/1999/xlink" x="0px" y="0px"
	 viewBox="0 0 1024 1024" style="enable-background:new 0 0 1024 1024;" xml:space="preserve">
<style type="text/css">
	.st0{fill:#21272A;}
	.st1{fill:#FFFFFF;}
</style>
<circle class="st0" cx="512" cy="512" r="512"/>
<path class="st1" d="M590.9,716.1H373.9c-87,0-157.9-70.8-157.9-157.9s70.8-157.9,157.9-157.9c7.7,0,15.3,0.6,22.9,1.7
	c35.7-71.1,109.3-120,194.1-120C710.6,281.9,808,379.3,808,499S710.6,716.1,590.9,716.1z M373.9,439.8c-65.4,0-118.4,53-118.4,118.4
	s53,118.4,118.4,118.4h217c97.9,0,177.6-79.7,177.6-177.6s-79.7-177.6-177.6-177.6S413.3,401.1,413.3,499c0,10.9-8.8,19.7-19.7,19.7
	c-10.9,0-19.7-8.8-19.7-19.7l0,0c0-19.9,2.7-39.8,8.1-58.9C379.3,439.9,376.6,439.8,373.9,439.8L373.9,439.8z"/>
</svg>
