<?xml version="1.0" encoding="utf-8"?>
<!-- Generator: Adobe Illustrator 27.5.0, SVG Export Plug-In . SVG Version: 6.00 Build 0)  -->
<svg version="1.1" id="Layer_1" xmlns="http://www.w3.org/2000/svg" xmlns:xlink="http://www.w3.org/1999/xlink" x="0px" y="0px"
	 viewBox="0 0 1024 1024" style="enable-background:new 0 0 1024 1024;" xml:space="preserve">
<style type="text/css">
	.st0{fill:#21272A;}
	.st1{fill:#FFFFFF;}
</style>
<circle class="st0" cx="512" cy="512" r="512"/>
<path class="st1" d="M713.5,309.6c-111.3-111.3-291.7-111.3-403.1,0s-111.3,291.7,0,403.1s291.7,111.3,403.1,0
	C767,659.2,797,586.7,797,511.1C797.2,435.5,767.1,363,713.5,309.6z M512,750.8c-20.6,0-43.2-23.9-60.3-64
	c-8.7-20.1-15.6-43.2-20.7-68.4h162c-5.1,25.2-12.1,48.3-20.7,68.4C555.2,726.8,532.6,750.8,512,750.8z M425,581.8
	c-5.7-46.9-5.7-94.3,0-141.1h174c5.7,46.9,5.7,94.3,0,141.1H425z M263.6,511.1c0-23.9,3.4-47.7,10.2-70.6h111.2
	c-5.4,46.9-5.4,94.2,0,141.1H273.9C267.1,558.8,263.6,535,263.6,511.1L263.6,511.1z M512,271.5c20.6,0,43.2,23.9,60.3,64
	c8.6,20.2,15.6,43.3,20.7,68.4H431c5.1-25.1,12.1-48.3,20.7-68.4C468.8,295.4,491.4,271.5,512,271.5z M639,440.5h111.2
	c13.6,46.1,13.6,95.1,0,141.1H639C644.3,534.8,644.3,487.4,639,440.5L639,440.5z M736,403.9H633.4c-5.8-30.9-14-59.4-24.6-84.1
	c-7.9-18.4-16.8-34.1-26.6-47C649.7,292.9,705.5,340.5,736,403.9z M441.8,272.9c-9.8,12.9-18.7,28.5-26.6,47
	c-10.6,24.7-18.9,53.2-24.6,84.1H288C318.5,340.6,374.3,293,441.8,272.9L441.8,272.9z M288,618.4h102.6c5.8,30.9,14,59.4,24.6,84.1
	c7.9,18.4,16.8,34.1,26.6,47C374.3,729.4,318.5,681.8,288,618.4z M582.2,749.4c9.8-12.8,18.7-28.5,26.6-47
	c10.6-24.7,18.8-53.2,24.6-84.1H736C705.5,681.7,649.7,729.3,582.2,749.4L582.2,749.4z"/>
</svg>
