<?xml version="1.0" encoding="utf-8"?>
<!-- Generator: Adobe Illustrator 27.5.0, SVG Export Plug-In . SVG Version: 6.00 Build 0)  -->
<svg version="1.1" id="Layer_1" xmlns="http://www.w3.org/2000/svg" xmlns:xlink="http://www.w3.org/1999/xlink" x="0px" y="0px"
	 viewBox="0 0 1024 1024" style="enable-background:new 0 0 1024 1024;" xml:space="preserve">
<style type="text/css">
	.st0{fill:#21272A;}
	.st1{fill:#FFFFFF;}
</style>
<circle class="st0" cx="512" cy="512" r="512"/>
<path class="st1" d="M575.4,490.9h-42.3V321.7h21.1c46.7,0.1,84.5,37.9,84.6,84.6c0,11.7,9.5,21.1,21.1,21.1
	c11.7,0,21.1-9.5,21.1-21.1c-0.1-70-56.8-126.8-126.8-126.9h-21.2v-42.3c0-11.7-9.5-21.1-21.1-21.1c-11.7,0-21.1,9.5-21.1,21.1v42.3
	h-31.7c-70.1,0.6-126.4,57.9-125.7,128c0.6,69.2,56.5,125.1,125.7,125.7h31.7v169.2h-42.3c-46.7-0.1-84.5-37.9-84.6-84.6
	c0-11.7-9.5-21.1-21.1-21.1c-11.7,0-21.1,9.5-21.1,21.1l0,0c0.1,70,56.8,126.8,126.9,126.9h42.3v42.3c0,11.7,9.5,21.1,21.1,21.1
	c11.7,0,21.1-9.5,21.1-21.1v-42.3h42.3c70.1,0.6,127.4-55.7,128-125.7s-55.7-127.4-125.7-128C576.9,490.9,576.2,490.9,575.4,490.9
	L575.4,490.9z M459.1,490.9c-46.7,0-84.6-37.9-84.6-84.6s37.9-84.6,84.6-84.6h31.7v169.1H459.1z M575.4,702.3h-42.3V533.1h42.3
	c46.7,0,84.6,37.9,84.6,84.6S622.1,702.3,575.4,702.3L575.4,702.3z"/>
</svg>
