<?xml version="1.0" encoding="utf-8"?>
<!-- Generator: Adobe Illustrator 27.5.0, SVG Export Plug-In . SVG Version: 6.00 Build 0)  -->
<svg version="1.1" id="Layer_1" xmlns="http://www.w3.org/2000/svg" xmlns:xlink="http://www.w3.org/1999/xlink" x="0px" y="0px"
	 viewBox="0 0 1024 1024" style="enable-background:new 0 0 1024 1024;" xml:space="preserve">
<style type="text/css">
	.st0{fill:#21272A;}
	.st1{fill:#FFFFFF;}
</style>
<circle class="st0" cx="512" cy="512" r="512"/>
<path class="st1" d="M759,660.9c48.8-90.8,17.5-203.8-71.1-256.6c-23-13.7-48.6-22.4-75.2-25.6c-3.4-8-7.3-15.7-11.7-23.1
	c-54.3-91.5-173-121.8-264.5-67.5c-88.8,52.7-120.4,166.1-71.6,257.1l-15,52.3c-5,17.9,5.4,36.6,23.3,41.6c6,1.7,12.3,1.7,18.3,0
	l52.3-14.9c21.1,11.3,44.1,18.6,67.9,21.5c41.7,97.8,154.7,143.3,252.5,101.7c5.3-2.3,10.5-4.8,15.6-7.5l52.3,14.9
	c17.9,5,36.6-5.4,41.6-23.4c1.7-6,1.7-12.3,0-18.3L759,660.9z M346.4,584.2c-1.8,0-3.6,0.2-5.3,0.7l-51.6,14.7l14.7-51.6
	c1.4-5.1,0.7-10.6-2-15.1c-43.5-73.4-19.4-168.1,54-211.7c0,0,0,0,0,0c73.2-43.5,168.2-19.2,211.7,54c4.5,7.6,8.3,15.5,11.4,23.7
	c0.3,2.9,1.3,5.6,2.8,8.1c21.4,67-5.2,142.5-68.2,179.9c-48.6,28.9-109.1,28.9-157.7,0C353.3,585.2,349.9,584.2,346.4,584.2
	L346.4,584.2z M721.7,648.6c-2.7,4.6-3.4,10-2,15.2l14.7,51.6l-51.6-14.7c-5.1-1.4-10.6-0.7-15.1,2
	c-73.1,43.5-167.6,19.4-211.1-53.7c-0.6-0.9-1.1-1.9-1.6-2.8c106.1-11,183.2-106,172.2-212.1c-0.5-4.7-1.1-9.4-2-14
	c82.7,19.8,133.8,102.8,114,185.6C735.5,620.7,729.6,635.2,721.7,648.6L721.7,648.6z"/>
</svg>
