<?xml version="1.0" encoding="utf-8"?>
<!-- Generator: Adobe Illustrator 27.5.0, SVG Export Plug-In . SVG Version: 6.00 Build 0)  -->
<svg version="1.1" id="Layer_1" xmlns="http://www.w3.org/2000/svg" xmlns:xlink="http://www.w3.org/1999/xlink" x="0px" y="0px"
	 viewBox="0 0 1024 1024" style="enable-background:new 0 0 1024 1024;" xml:space="preserve">
<style type="text/css">
	.st0{fill:#21272A;}
	.st1{fill:#FFFFFF;}
</style>
<circle class="st0" cx="512" cy="512" r="512"/>
<path class="st1" d="M708.9,685.5H315.1c-32.6,0-59-26.5-59.1-59.1V350.8c0-32.6,26.5-59,59.1-59.1h393.8c32.6,0,59,26.5,59.1,59.1
	v275.7C768,659.1,741.5,685.5,708.9,685.5z M315.1,331.1c-10.9,0-19.7,8.8-19.7,19.7v275.7c0,10.9,8.8,19.7,19.7,19.7h393.8
	c10.9,0,19.7-8.8,19.7-19.7V350.8c0-10.9-8.8-19.7-19.7-19.7H315.1z M610.5,744.6c0-10.9-8.8-19.7-19.7-19.7l0,0H433.2
	c-10.9,0-19.7,8.8-19.7,19.7s8.8,19.7,19.7,19.7h157.5C601.6,764.3,610.5,755.5,610.5,744.6L610.5,744.6L610.5,744.6z"/>
</svg>
