<?xml version="1.0" standalone="no"?>
<!DOCTYPE svg PUBLIC "-//W3C//DTD SVG 1.1//EN" "http://www.w3.org/Graphics/SVG/1.1/DTD/svg11.dtd" >
<svg xmlns="http://www.w3.org/2000/svg" xmlns:xlink="http://www.w3.org/1999/xlink" version="1.1" viewBox="-10 0 522 512">
   <path fill="currentColor"
d="M464 176q0 13 -9.5 22.5t-22.5 9.5h-32v32q0 13 -9.5 22.5t-22.5 9.5t-22.5 -9.5t-9.5 -22.5v-32h-32q-13 0 -22.5 -9.5t-9.5 -22.5t9.5 -22.5t22.5 -9.5h32v-32q0 -13 9.5 -22.5t22.5 -9.5t22.5 9.5t9.5 22.5v32h32q13 0 22.5 9.5t9.5 22.5zM144 432q-13 0 -22.5 -9.5
t-9.5 -22.5t9.5 -22.5t22.5 -9.5t22.5 9.5t9.5 22.5t-9.5 22.5t-22.5 9.5zM144 80q13 0 22.5 9.5t9.5 22.5t-9.5 22.5t-22.5 9.5t-22.5 -9.5t-9.5 -22.5t9.5 -22.5t22.5 -9.5zM368 304q-13 0 -22.5 9.5t-9.5 22.5t-9.5 22.5t-22.5 9.5h-64l-6 1q-7 -21 -22.5 -36.5
t-36.5 -22.5l1 -6v-96l-1 -6q29 -9 47 -34t18 -56q0 -40 -28 -68t-68 -28t-68 28t-28 68q0 31 18 56t47 34l-1 6v96l1 6q-29 9 -47 34t-18 56q0 40 28 68t68 28q31 0 56 -18t34 -47l6 1h64q40 0 68 -28t28 -68q0 -13 -9.5 -22.5t-22.5 -9.5z" />
</svg>
