<?xml version="1.0" standalone="no"?>
<!DOCTYPE svg PUBLIC "-//W3C//DTD SVG 1.1//EN" "http://www.w3.org/Graphics/SVG/1.1/DTD/svg11.dtd" >
<svg xmlns="http://www.w3.org/2000/svg" xmlns:xlink="http://www.w3.org/1999/xlink" version="1.1" viewBox="-10 0 531 512">
   <path fill="currentColor"
d="M489 0q9 0 15.5 6t6.5 15v245q-30 0 -55.5 -15t-40.5 -40.5t-15 -55.5v-44h-46q-22 0 -42 -8.5t-36 -24t-24.5 -36t-8.5 -42.5h246zM368 123q8 0 14.5 6t6.5 15v244q-30 0 -55.5 -15t-40.5 -40.5t-15 -55.5v-44h-45q-30 0 -55.5 -14.5t-40.5 -40t-15 -55.5h246zM246 245
q9 0 15 6t6 15v245q-30 0 -55.5 -15t-40.5 -40.5t-15 -55.5v-44h-45q-30 0 -55.5 -15t-40.5 -40.5t-15 -55.5h246z" />
</svg>
