<?xml version="1.0" standalone="no"?>
<!DOCTYPE svg PUBLIC "-//W3C//DTD SVG 1.1//EN" "http://www.w3.org/Graphics/SVG/1.1/DTD/svg11.dtd" >
<svg xmlns="http://www.w3.org/2000/svg" xmlns:xlink="http://www.w3.org/1999/xlink" version="1.1" viewBox="-10 0 522 512">
   <path fill="currentColor"
d="M414 414q-9 10 -22 10t-23 -9l-113 -114l-113 113q-9 10 -22.5 10t-23 -9.5t-9.5 -23t10 -22.5l113 -113l-114 -113q-9 -10 -9 -23t9.5 -22.5t22.5 -9.5t23 9l113 114l113 -113q9 -10 22.5 -10t23 9.5t9.5 23t-10 22.5l-113 113l114 113q9 10 9 23t-10 22z" />
</svg>
