<?xml version="1.0" standalone="no"?>
<!DOCTYPE svg PUBLIC "-//W3C//DTD SVG 1.1//EN" "http://www.w3.org/Graphics/SVG/1.1/DTD/svg11.dtd" >
<svg xmlns="http://www.w3.org/2000/svg" xmlns:xlink="http://www.w3.org/1999/xlink" version="1.1" viewBox="-10 0 522 512">
   <path fill="currentColor"
d="M256 480q-61 0 -112.5 -30t-81.5 -81.5t-30 -112.5t30 -112.5t81.5 -81.5t112.5 -30t112.5 30t81.5 81.5t30 112.5t-30 112.5t-81.5 81.5t-112.5 30zM183 233q-10 -9 -23 -9t-22.5 9.5t-9.5 22.5t9 23l64 64q10 9 23 9t23 -9l128 -128q9 -10 9 -23t-9.5 -22.5t-22.5 -9.5
t-23 9l-105 106z" />
</svg>
