<?xml version="1.0" standalone="no"?>
<!DOCTYPE svg PUBLIC "-//W3C//DTD SVG 1.1//EN" "http://www.w3.org/Graphics/SVG/1.1/DTD/svg11.dtd" >
<svg xmlns="http://www.w3.org/2000/svg" xmlns:xlink="http://www.w3.org/1999/xlink" version="1.1" viewBox="-10 0 522 512">
   <path fill="currentColor"
d="M170 106v-22q0 -9 6.5 -15t15.5 -6h128q9 0 15.5 6t6.5 15v22h64q27 0 46 18.5t19 44.5v216q0 27 -19 45.5t-46 18.5h-300q-27 0 -46 -18.5t-19 -45.5v-216q0 -26 19 -44.5t46 -18.5h64zM256 382q9 0 15 -6t6 -15t-6 -15.5t-15 -6.5q-27 0 -45.5 -18.5t-18.5 -45.5
t18.5 -45.5t45.5 -18.5q24 0 42 15.5t22 38.5l-6 -5q-6 -6 -15 -6t-15.5 6t-6.5 15t7 15l43 43q6 6 15 6t15 -6l43 -43q6 -6 6 -15t-6 -15t-15 -6t-15 6l-7 6q-3 -41 -34 -69.5t-73 -28.5q-29 0 -53.5 14.5t-39 39t-14.5 53.5t14.5 54t39 39t53.5 14z" />
</svg>
