<?xml version="1.0" standalone="no"?>
<!DOCTYPE svg PUBLIC "-//W3C//DTD SVG 1.1//EN" "http://www.w3.org/Graphics/SVG/1.1/DTD/svg11.dtd" >
<svg xmlns="http://www.w3.org/2000/svg" xmlns:xlink="http://www.w3.org/1999/xlink" version="1.1" viewBox="-10 0 522 512">
   <path fill="currentColor"
d="M374 167v41q0 10 7 17t17 7t17 -7t7 -17v-92q0 -10 -8 -18t-18 -8h-93q-9 0 -16 7t-7 17t7 17t16 7h34l-199 199v-34q0 -9 -7 -16t-17 -7t-17 7t-7 16v92q0 11 8 18.5t18 7.5h93q9 0 16 -7t7 -16.5t-7 -16.5t-16 -7h-42zM43 107q0 -27 18.5 -45.5t45.5 -18.5h298
q27 0 45.5 18.5t18.5 45.5v298q0 27 -18.5 45.5t-45.5 18.5h-298q-27 0 -45.5 -18.5t-18.5 -45.5v-298z" />
</svg>
