<?xml version="1.0" standalone="no"?>
<!DOCTYPE svg PUBLIC "-//W3C//DTD SVG 1.1//EN" "http://www.w3.org/Graphics/SVG/1.1/DTD/svg11.dtd" >
<svg xmlns="http://www.w3.org/2000/svg" xmlns:xlink="http://www.w3.org/1999/xlink" version="1.1" viewBox="-10 0 522 512">
   <path fill="currentColor"
d="M160 80q0 -7 5 -11.5t11 -4.5h224q7 0 11.5 4.5t4.5 11.5v32q0 7 -5 11.5t-11 4.5h-224q-7 0 -11.5 -4.5t-4.5 -11.5v-32zM96 400q0 -7 5 -11.5t11 -4.5h224q7 0 11.5 4.5t4.5 11.5v32q0 7 -5 11.5t-11 4.5h-224q-7 0 -11.5 -4.5t-4.5 -11.5v-32zM256 128h64l-64 256h-64
z" />
</svg>
