<?xml version="1.0" standalone="no"?>
<!DOCTYPE svg PUBLIC "-//W3C//DTD SVG 1.1//EN" "http://www.w3.org/Graphics/SVG/1.1/DTD/svg11.dtd" >
<svg xmlns="http://www.w3.org/2000/svg" xmlns:xlink="http://www.w3.org/1999/xlink" version="1.1" viewBox="-10 0 522 512">
   <path fill="currentColor"
d="M229 110l-119 119l100 101l119 -120zM275 65l100 100q18 19 18 45.5t-18 45.5l-119 119q-19 19 -45.5 19t-45.5 -19l-100 -100q-19 -19 -19 -45.5t19 -45.5l119 -119q19 -19 45.5 -19t45.5 19zM223 178q6 12 2 24.5t-16 18.5t-24.5 2t-18.5 -16l-66 -131q-6 -12 -2 -24.5
t16 -18.5t24.5 -2t18.5 16zM355 352q0 -11 4 -21q3 -6 12 -17q9 -13 14 -21q6 -15 8 -33q0 -5 8.5 1.5t18.5 19.5q11 15 18 31q8 21 8 39.5t-12.5 32t-31 13.5t-33 -13.5t-14.5 -31.5zM64 432q0 -7 4.5 -11.5t11.5 -4.5h352q7 0 11.5 4.5t4.5 11.5v32q0 7 -4.5 11.5
t-11.5 4.5h-352q-7 0 -11.5 -4.5t-4.5 -11.5v-32z" />
</svg>
