<?xml version="1.0" standalone="no"?>
<!DOCTYPE svg PUBLIC "-//W3C//DTD SVG 1.1//EN" "http://www.w3.org/Graphics/SVG/1.1/DTD/svg11.dtd" >
<svg xmlns="http://www.w3.org/2000/svg" xmlns:xlink="http://www.w3.org/1999/xlink" version="1.1" viewBox="-10 0 522 512">
   <path fill="currentColor"
d="M278 368q0 9 -6.5 15.5t-15.5 6.5t-15.5 -6.5t-6.5 -15.5t6.5 -15.5t15.5 -6.5t15.5 6.5t6.5 15.5zM334 200q0 26 -15.5 47t-40.5 28v26q0 9 -6.5 15.5t-15.5 6.5t-15.5 -6.5t-6.5 -15.5v-45q0 -9 6.5 -15.5t15.5 -6.5q14 0 24 -10t10 -24t-10 -24t-24 -10t-24 10t-10 24
q0 9 -6.5 15.5t-15.5 6.5t-15.5 -6.5t-6.5 -15.5q0 -32 23 -55t55 -23t55 23t23 55zM256 435q-49 0 -90 -24t-65 -65t-24 -90t24 -90t65 -65t90 -24t90 24t65 65t24 90t-24 90t-65 65t-90 24zM256 32q-61 0 -112.5 30t-81.5 81.5t-30 112.5t30 112.5t81.5 81.5t112.5 30
t112.5 -30t81.5 -81.5t30 -112.5t-30 -112.5t-81.5 -81.5t-112.5 -30z" />
</svg>
