<?xml version="1.0" standalone="no"?>
<!DOCTYPE svg PUBLIC "-//W3C//DTD SVG 1.1//EN" "http://www.w3.org/Graphics/SVG/1.1/DTD/svg11.dtd" >
<svg xmlns="http://www.w3.org/2000/svg" xmlns:xlink="http://www.w3.org/1999/xlink" version="1.1" viewBox="-10 0 532 512">
   <path fill="currentColor"
d="M368 352h-128q-7 0 -11.5 -4.5t-4.5 -11.5v-160q0 -7 4.5 -11.5t11.5 -4.5h128q7 0 11.5 4.5t4.5 11.5v160q0 7 -4.5 11.5t-11.5 4.5zM176 352h-32q-7 0 -11.5 -4.5t-4.5 -11.5v-160q0 -7 4.5 -11.5t11.5 -4.5h32q7 0 11.5 4.5t4.5 11.5v160q0 7 -4.5 11.5t-11.5 4.5z
M64 128v256h384v-256h-384zM64 64h384q27 0 45.5 18.5t18.5 45.5v256q0 27 -18.5 45.5t-45.5 18.5h-384q-27 0 -45.5 -18.5t-18.5 -45.5v-256q0 -27 18.5 -45.5t45.5 -18.5z" />
</svg>
