<?xml version="1.0" standalone="no"?>
<!DOCTYPE svg PUBLIC "-//W3C//DTD SVG 1.1//EN" "http://www.w3.org/Graphics/SVG/1.1/DTD/svg11.dtd" >
<svg xmlns="http://www.w3.org/2000/svg" xmlns:xlink="http://www.w3.org/1999/xlink" version="1.1" viewBox="-10 0 522 512">
   <path fill="currentColor"
d="M365 161q-20 -20 -44 -31.5t-59 -11.5q-28 0 -52.5 10t-43 28t-29 43.5t-10.5 56.5t10.5 56t29.5 43.5t43.5 28t54 9.5t51.5 -8.5t38 -22.5q11 -10 19.5 -24.5t13.5 -32.5h-126v-71h205q2 6 3 16.5t1 21.5q0 42 -12 77t-38 62q-28 30 -67 46.5t-90 16.5q-46 0 -86 -16.5
t-70 -45.5t-47.5 -68.5t-17.5 -87t17.5 -87.5t47 -69t70.5 -45.5t86 -16.5q52 0 91.5 18t68.5 49z" />
</svg>
