<?xml version="1.0" standalone="no"?>
<!DOCTYPE svg PUBLIC "-//W3C//DTD SVG 1.1//EN" "http://www.w3.org/Graphics/SVG/1.1/DTD/svg11.dtd" >
<svg xmlns="http://www.w3.org/2000/svg" xmlns:xlink="http://www.w3.org/1999/xlink" version="1.1" viewBox="-10 0 522 512">
   <path fill="currentColor"
d="M361 375q10 9 23 9t22.5 -9.5t9.5 -22.5t-9 -22l-75 -74l74 -74q10 -9 10 -22t-9.5 -22.5t-23 -9.5t-22.5 9l-95 94q-10 10 -10 24.5t10 25.5zM106 231l95 -94q9 -9 22.5 -9t23 9.5t9.5 22.5t-10 22l-74 74l75 74q9 9 9 22t-9.5 22.5t-22.5 9.5t-23 -9l-95 -94
q-10 -11 -10 -25.5t10 -24.5z" />
</svg>
