<?xml version="1.0" standalone="no"?>
<!DOCTYPE svg PUBLIC "-//W3C//DTD SVG 1.1//EN" "http://www.w3.org/Graphics/SVG/1.1/DTD/svg11.dtd" >
<svg xmlns="http://www.w3.org/2000/svg" xmlns:xlink="http://www.w3.org/1999/xlink" version="1.1" viewBox="-10 0 522 512">
   <path fill="currentColor"
d="M182 247l74 -75l74 74q9 10 22 10t22.5 -9.5t9.5 -23t-9 -22.5l-94 -95q-10 -10 -24.5 -10t-25.5 10l-94 95q-9 10 -9 23t9.5 22.5t22.5 9.5t22 -9zM375 361q9 9 9 22.5t-9.5 23t-22.5 9.5t-22 -10l-74 -74l-74 75q-9 9 -22 9t-22.5 -9.5t-9.5 -22.5t9 -23l94 -95
q11 -10 25.5 -10t24.5 10z" />
</svg>
