<?xml version="1.0" standalone="no"?>
<!DOCTYPE svg PUBLIC "-//W3C//DTD SVG 1.1//EN" "http://www.w3.org/Graphics/SVG/1.1/DTD/svg11.dtd" >
<svg xmlns="http://www.w3.org/2000/svg" xmlns:xlink="http://www.w3.org/1999/xlink" version="1.1" viewBox="-10 0 522 512">
   <path fill="currentColor"
d="M64 128q0 -26 19 -45t45 -19h256q26 0 45 19t19 45v256q0 26 -19 45t-45 19h-256q-26 0 -45 -19t-19 -45v-256zM183 233q-10 -9 -23 -9t-22.5 9.5t-9.5 22.5t9 23l64 64q10 9 23 9t23 -9l128 -128q9 -10 9 -23t-9.5 -22.5t-22.5 -9.5t-23 9l-105 106z" />
</svg>
