<?xml version="1.0" standalone="no"?>
<!DOCTYPE svg PUBLIC "-//W3C//DTD SVG 1.1//EN" "http://www.w3.org/Graphics/SVG/1.1/DTD/svg11.dtd" >
<svg xmlns="http://www.w3.org/2000/svg" xmlns:xlink="http://www.w3.org/1999/xlink" version="1.1" viewBox="-10 0 522 512">
   <path fill="currentColor"
d="M82 244q0 -37 23.5 -68.5t63.5 -50t87 -18.5t87 18.5t63.5 50t23.5 68.5t-23.5 68.5t-63.5 50t-87 18.5t-87 -18.5t-63.5 -50t-23.5 -68.5v0zM451 437v0l-9 -15q-10 -19 -14 -33q-5 -20 4 -29h-1q23 -24 36 -54t13 -62q0 -51 -30 -94t-81.5 -68t-112.5 -25t-112.5 25
t-81.5 68t-30 94t30 93.5t81.5 68t112.5 25.5q51 0 98 -20q18 18 41 30q21 10 40 13v0q3 1 4 1q5 0 9 -4t4 -9q0 -3 -1 -5z" />
</svg>
