<?xml version="1.0" standalone="no"?>
<!DOCTYPE svg PUBLIC "-//W3C//DTD SVG 1.1//EN" "http://www.w3.org/Graphics/SVG/1.1/DTD/svg11.dtd" >
<svg xmlns="http://www.w3.org/2000/svg" xmlns:xlink="http://www.w3.org/1999/xlink" version="1.1" viewBox="-10 0 522 512">
   <path fill="currentColor"
d="M315 58q10 4 14.5 13t1.5 19l-120 348q-4 10 -13 14.5t-18.5 1t-14.5 -12.5t-1 -19l120 -348q3 -10 12 -14.5t19 -1.5zM163 262q7 7 7.5 17.5t-7 17.5t-17.5 7.5t-18 -6.5l-82 -80q-8 -8 -8 -18.5t8 -17.5l88 -85q7 -7 17.5 -7t17.5 7.5t7 17.5t-8 18l-69 67zM466 301
q8 7 8 17.5t-8 18.5l-88 85q-7 7 -17.5 6.5t-17.5 -7.5t-7 -17.5t8 -17.5l69 -67l-64 -62q-7 -8 -7.5 -18t7 -17.5t17.5 -7.5t18 7z" />
</svg>
