<?xml version="1.0" standalone="no"?>
<!DOCTYPE svg PUBLIC "-//W3C//DTD SVG 1.1//EN" "http://www.w3.org/Graphics/SVG/1.1/DTD/svg11.dtd" >
<svg xmlns="http://www.w3.org/2000/svg" xmlns:xlink="http://www.w3.org/1999/xlink" version="1.1" viewBox="-10 0 522 512">
   <path fill="currentColor"
d="M243 245q-19 20 -29.5 46t-10.5 55q0 55 35 96q-41 8 -87 4.5t-76 -17.5q-33 -15 -33 -39v21v-103q0 -26 19 -44.5t45 -18.5h137zM451 270q14 18 18 39t-2 42q-12 43 -41 55q-16 7 -35 4q-10 -2 -17.5 -6t-12.5 -11q-16 12 -32 12q-10 0 -19 -5q-15 -8 -20 -25
q-7 -26 8 -53q12 -22 33.5 -31t39.5 1l3 2q9 -6 17.5 -2.5t11.5 11t0 14.5l-2 4q-9 22 -11 32q-3 14 3 17v0v0q10 4 18 1q11 -6 18 -30q7 -26 -9 -47q-11 -15 -31 -24t-42 -9q-36 0 -61 25t-25 60t25 60t61 25q8 0 13.5 6t5.5 14t-5.5 13.5t-13.5 5.5q-34 0 -62.5 -16.5
t-45.5 -45t-17 -62t17 -62t45.5 -45.5t62.5 -17q31 0 59 13t45 35zM363 355q7 -13 6 -24t-9.5 -15t-19.5 1t-17.5 17t-5.5 24t9.5 16.5t19 -1.5t17.5 -18zM177 222q-37 0 -63.5 -26.5t-26.5 -63.5t26.5 -63.5t63.5 -26.5t63.5 26.5t26.5 63.5t-26.5 63.5t-63.5 26.5z" />
</svg>
