<?xml version="1.0" standalone="no"?>
<!DOCTYPE svg PUBLIC "-//W3C//DTD SVG 1.1//EN" "http://www.w3.org/Graphics/SVG/1.1/DTD/svg11.dtd" >
<svg xmlns="http://www.w3.org/2000/svg" xmlns:xlink="http://www.w3.org/1999/xlink" version="1.1" viewBox="-10 0 522 512">
   <path fill="currentColor"
d="M103 101q0 -26 18.5 -45t45.5 -19h178q27 0 45.5 19t18.5 45v310q0 26 -18.5 45t-45.5 19h-178q-27 0 -45.5 -19t-18.5 -45v-310zM147 81v350h218v-350h-218zM168 147q0 -10 6.5 -16t16.5 -6h130q10 0 16.5 6t6.5 15.5t-6.5 15.5t-16.5 6h-130q-10 0 -16.5 -6t-6.5 -15z
M168 212q0 -9 6.5 -15.5t16.5 -6.5h130q10 0 16.5 6.5t6.5 15.5t-6.5 15.5t-16.5 6.5h-130q-10 0 -16.5 -6.5t-6.5 -15.5zM168 278q0 -9 7 -15.5t16 -6.5h43q9 0 15.5 6.5t6.5 15.5t-6.5 15.5t-15.5 6.5h-43q-10 0 -16.5 -6.5t-6.5 -15.5z" />
</svg>
