<?xml version="1.0" standalone="no"?>
<!DOCTYPE svg PUBLIC "-//W3C//DTD SVG 1.1//EN" "http://www.w3.org/Graphics/SVG/1.1/DTD/svg11.dtd" >
<svg xmlns="http://www.w3.org/2000/svg" xmlns:xlink="http://www.w3.org/1999/xlink" version="1.1" viewBox="-10 0 522 512">
   <path fill="currentColor"
d="M280 232h24q10 0 17 7t7 17t-7 17t-17 7h-24v24q0 10 -7 17t-17 7t-17 -7t-7 -17v-24h-24q-10 0 -17 -7t-7 -17t7 -17t17 -7h24v-24q0 -10 7 -17t17 -7t17 7t7 17v24zM41 161q0 -20 14 -34t34 -14h334q20 0 34 14t14 34v190q0 20 -14 34t-34 14h-334q-20 0 -34 -14
t-14 -34v-190zM89 351q0 1 334 1v-191l-334 -1v191z" />
</svg>
