<?xml version="1.0" standalone="no"?>
<!DOCTYPE svg PUBLIC "-//W3C//DTD SVG 1.1//EN" "http://www.w3.org/Graphics/SVG/1.1/DTD/svg11.dtd" >
<svg xmlns="http://www.w3.org/2000/svg" xmlns:xlink="http://www.w3.org/1999/xlink" version="1.1" viewBox="-10 0 522 512">
   <path fill="currentColor"
d="M427 109h25q10 0 17 7t7 17.5t-7 17.5t-17 7h-25v25q0 10 -7 17t-17 7t-17.5 -7t-7.5 -17v-25h-24q-10 0 -17.5 -7t-7.5 -17t7.5 -17.5t17.5 -7.5h24v-25q0 -10 7.5 -17t17.5 -7t17 7.5t7 16.5v25zM305 65v50q-24 -6 -49 -6q-46 0 -85.5 18.5t-62.5 49.5t-23 67.5
t23 67.5t62.5 49t85.5 18t85.5 -18t62.5 -49t23 -68v-12h49v12q0 32 -12.5 61t-35.5 53h1q-9 9 -4 29q4 14 14 32l9 15q1 3 1 5q0 5 -4 9t-9 4q-1 0 -4 -1v0q-19 -3 -39 -13q-23 -11 -40 -29q-46 19 -97 19q-60 0 -110.5 -25t-80 -67t-29.5 -92t29.5 -92t80 -67t110.5 -25
q25 0 49 5z" />
</svg>
