<?xml version="1.0" standalone="no"?>
<!DOCTYPE svg PUBLIC "-//W3C//DTD SVG 1.1//EN" "http://www.w3.org/Graphics/SVG/1.1/DTD/svg11.dtd" >
<svg xmlns="http://www.w3.org/2000/svg" xmlns:xlink="http://www.w3.org/1999/xlink" version="1.1" viewBox="-10 0 522 512">
   <path fill="currentColor"
d="M148 160h-16q-13 0 -22.5 -9.5t-9.5 -22.5v-80q0 -13 9.5 -22.5t22.5 -9.5h80q13 0 22.5 9.5t9.5 22.5v80q0 13 -9.5 22.5t-22.5 9.5h-16v45q0 27 24 27h48v-16q0 -13 9.5 -22.5t22.5 -9.5h80q13 0 22.5 9.5t9.5 22.5v80q0 13 -9.5 22.5t-22.5 9.5h-80q-13 0 -22.5 -9.5
t-9.5 -22.5v-16h-48q-13 0 -24 -3v96q0 27 24 27h48v-16q0 -13 9.5 -22.5t22.5 -9.5h80q13 0 22.5 9.5t9.5 22.5v80q0 13 -9.5 22.5t-22.5 9.5h-80q-13 0 -22.5 -9.5t-9.5 -22.5v-16h-48q-34 0 -53 -20.5t-19 -54.5v-213z" />
</svg>
