<?xml version="1.0" standalone="no"?>
<!DOCTYPE svg PUBLIC "-//W3C//DTD SVG 1.1//EN" "http://www.w3.org/Graphics/SVG/1.1/DTD/svg11.dtd" >
<svg xmlns="http://www.w3.org/2000/svg" xmlns:xlink="http://www.w3.org/1999/xlink" version="1.1" viewBox="-10 0 522 512">
   <path fill="currentColor"
d="M16 160v192q0 26 19 45t45 19h32v-64h-32v-192h32v-64h-32q-26 0 -45 19t-19 45zM336 160v-64h-128v320h224v-192h64v192q0 26 -19 45t-45 19h-224q-26 0 -45 -19t-19 -45v-320q0 -26 19 -45t45 -19h133q27 0 46 19l90 90q19 19 19 46v5h-128q-13 0 -22.5 -9.5
t-9.5 -22.5z" />
</svg>
