<?xml version="1.0" standalone="no"?>
<!DOCTYPE svg PUBLIC "-//W3C//DTD SVG 1.1//EN" "http://www.w3.org/Graphics/SVG/1.1/DTD/svg11.dtd" >
<svg xmlns="http://www.w3.org/2000/svg" xmlns:xlink="http://www.w3.org/1999/xlink" version="1.1" viewBox="-10 0 522 512">
   <path fill="currentColor"
d="M256 480q-61 0 -112.5 -30t-81.5 -81.5t-30 -112.5t30 -112.5t81.5 -81.5t112.5 -30t112.5 30t81.5 81.5t30 112.5t-30 112.5t-81.5 81.5t-112.5 30zM305 173q-6 -7 -15.5 -7t-15.5 7l-67 66q-7 7 -7 17t7 17l66 66q7 7 16.5 7t16 -6.5t6.5 -16t-7 -15.5l-52 -52l52 -52
q7 -6 7 -15.5t-7 -15.5z" />
</svg>
