<?xml version="1.0" standalone="no"?>
<!DOCTYPE svg PUBLIC "-//W3C//DTD SVG 1.1//EN" "http://www.w3.org/Graphics/SVG/1.1/DTD/svg11.dtd" >
<svg xmlns="http://www.w3.org/2000/svg" xmlns:xlink="http://www.w3.org/1999/xlink" version="1.1" viewBox="-10 0 522 512">
   <path fill="currentColor"
d="M366 146q0 -18 12.5 -31t31 -13t31.5 13t13 31v154q0 18 -13 31t-31 13t-31 -13t-13 -31v-154zM234 212q0 -18 13 -31t31 -13t31 13t13 31v88q0 18 -13 31t-31 13t-31 -13t-13 -31v-88zM102 278q0 -18 13 -31t31 -13t31 13t13 31v22q0 18 -13 31t-31 13t-31 -13t-13 -31
v-22zM454 366q9 0 15.5 6.5t6.5 15.5t-6.5 15.5t-15.5 6.5h-352q-27 0 -46.5 -19.5t-19.5 -46.5v-220q0 -9 6.5 -15.5t15.5 -6.5t15.5 6.5t6.5 15.5v220q0 9 6.5 15.5t15.5 6.5h352z" />
</svg>
