<?xml version="1.0" standalone="no"?>
<!DOCTYPE svg PUBLIC "-//W3C//DTD SVG 1.1//EN" "http://www.w3.org/Graphics/SVG/1.1/DTD/svg11.dtd" >
<svg xmlns="http://www.w3.org/2000/svg" xmlns:xlink="http://www.w3.org/1999/xlink" version="1.1" viewBox="-10 0 522 512">
   <path fill="currentColor"
d="M123 89l134 135q9 9 16 25t7 29v158q0 13 -9.5 22.5t-23.5 9.5h18q-14 0 -23.5 -9.5t-9.5 -22.5v-170l-143 -143l1 40q0 9 -7 15.5t-16 6.5t-16 -6.5t-7 -15.5v-94q0 -11 7.5 -18t17.5 -7h94q9 0 15.5 7t6.5 16t-6.5 16t-15.5 6h-40zM428 51q7 -7 16.5 -7t16.5 7t7 16.5
t-7 16.5l-118 118q-7 7 -16.5 7t-16.5 -7t-7 -16.5t7 -16.5z" />
</svg>
