<?xml version="1.0" standalone="no"?>
<!DOCTYPE svg PUBLIC "-//W3C//DTD SVG 1.1//EN" "http://www.w3.org/Graphics/SVG/1.1/DTD/svg11.dtd" >
<svg xmlns="http://www.w3.org/2000/svg" xmlns:xlink="http://www.w3.org/1999/xlink" version="1.1" viewBox="-10 0 522 512">
   <path fill="currentColor"
d="M346 42l-91 75l125 77l90 -71zM42 127l89 69l124 -79l-85 -75zM342 391l-1 -21l-85 -64l-82 63l-1 1l-45 -27v45l128 82l127 -82v-43l-41 25v21zM131 196l-89 71l128 77l85 -65l1 1v-1l87 65l127 -77l-90 -73l-124 79zM380 194v0v0z" />
</svg>
