<?xml version="1.0" standalone="no"?>
<!DOCTYPE svg PUBLIC "-//W3C//DTD SVG 1.1//EN" "http://www.w3.org/Graphics/SVG/1.1/DTD/svg11.dtd" >
<svg xmlns="http://www.w3.org/2000/svg" xmlns:xlink="http://www.w3.org/1999/xlink" version="1.1" viewBox="-10 0 522 512">
   <path fill="currentColor"
d="M108 409q-16 -16 -16 -38.5t16 -38.5l76 77q-16 15 -38.5 15t-37.5 -15zM239 80q20 -19 45 -29t52 -10q41 0 75 22l1 -2q8 -8 19.5 -8t19.5 8t8 19.5t-8 19.5l-2 1q26 40 21.5 88.5t-38.5 83.5l-13 12q-19 19 -40.5 49t-33.5 53l-36 73q-5 10 -14 11.5t-17 -6.5
l-231 -231q-8 -8 -6.5 -17t11.5 -14l73 -36q23 -12 53 -34t49 -40z" />
</svg>
