<?xml version="1.0" standalone="no"?>
<!DOCTYPE svg PUBLIC "-//W3C//DTD SVG 1.1//EN" "http://www.w3.org/Graphics/SVG/1.1/DTD/svg11.dtd" >
<svg xmlns="http://www.w3.org/2000/svg" xmlns:xlink="http://www.w3.org/1999/xlink" version="1.1" viewBox="-10 0 522 512">
   <path fill="currentColor"
d="M256 480q-61 0 -112.5 -30t-81.5 -81.5t-30 -112.5t30 -112.5t81.5 -81.5t112.5 -30t112.5 30t81.5 81.5t30 112.5t-30 112.5t-81.5 81.5t-112.5 30zM256 448q52 0 96 -26t70 -70t26 -96t-26 -96t-70 -70t-96 -26t-96 26t-70 70t-26 96t26 96t70 70t96 26zM256 416
q-43 0 -80 -21.5t-58.5 -58.5t-21.5 -80t21.5 -80t58.5 -58.5t80 -21.5t80 21.5t58.5 58.5t21.5 80t-21.5 80t-58.5 58.5t-80 21.5z" />
</svg>
