<?xml version="1.0" standalone="no"?>
<!DOCTYPE svg PUBLIC "-//W3C//DTD SVG 1.1//EN" "http://www.w3.org/Graphics/SVG/1.1/DTD/svg11.dtd" >
<svg xmlns="http://www.w3.org/2000/svg" xmlns:xlink="http://www.w3.org/1999/xlink" version="1.1" viewBox="-10 0 522 512">
   <path fill="currentColor"
d="M151 137q-10 -9 -23 -9t-22.5 9.5t-9.5 22.5t9 22l75 74l-74 74q-10 9 -10 22t9.5 22.5t23 9.5t22.5 -9l95 -94q10 -10 10 -24.5t-10 -25.5zM406 281l-95 94q-9 9 -22.5 9t-23 -9.5t-9.5 -22.5t10 -22l74 -74l-75 -74q-9 -9 -9 -22t9.5 -22.5t22.5 -9.5t23 9l95 94
q10 11 10 25.5t-10 24.5z" />
</svg>
