<?xml version="1.0" standalone="no"?>
<!DOCTYPE svg PUBLIC "-//W3C//DTD SVG 1.1//EN" "http://www.w3.org/Graphics/SVG/1.1/DTD/svg11.dtd" >
<svg xmlns="http://www.w3.org/2000/svg" xmlns:xlink="http://www.w3.org/1999/xlink" version="1.1" viewBox="-10 0 522 512">
   <path fill="currentColor"
d="M256 32q61 0 112.5 30t81.5 81.5t30 112.5t-30 112.5t-81.5 81.5t-112.5 30t-112.5 -30t-81.5 -81.5t-30 -112.5t30 -112.5t81.5 -81.5t112.5 -30zM256 432q48 0 88.5 -23.5t64 -64t23.5 -88.5t-23.5 -88.5t-64 -64t-88.5 -23.5t-88.5 23.5t-64 64t-23.5 88.5t23.5 88.5
t64 64t88.5 23.5zM208 240q-13 0 -22.5 -9.5t-9.5 -22.5t9.5 -22.5t22.5 -9.5t22.5 9.5t9.5 22.5t-9.5 22.5t-22.5 9.5zM304 240q-13 0 -22.5 -9.5t-9.5 -22.5t9.5 -22.5t22.5 -9.5t22.5 9.5t9.5 22.5t-9.5 22.5t-22.5 9.5zM313 291q5 -7 13.5 -7t14.5 5.5t6.5 13.5t-5.5 14
q-16 19 -38.5 29t-47.5 10t-47.5 -10t-38.5 -29q-6 -6 -5.5 -14t6.5 -13.5t14.5 -5t13.5 6.5q15 15 36 21t42.5 0t35.5 -21z" />
</svg>
