<?xml version="1.0" standalone="no"?>
<!DOCTYPE svg PUBLIC "-//W3C//DTD SVG 1.1//EN" "http://www.w3.org/Graphics/SVG/1.1/DTD/svg11.dtd" >
<svg xmlns="http://www.w3.org/2000/svg" xmlns:xlink="http://www.w3.org/1999/xlink" version="1.1" viewBox="-10 0 522 512">
   <path fill="currentColor"
d="M259 383q-24 24 -59 24t-59.5 -24t-24.5 -57.5t25 -57.5l152 -149q15 -14 35 -14t34.5 14t14.5 33.5t-15 33.5l-143 140q-4 4 -9.5 4t-9.5 -4t-4 -10t4 -10l133 -129q6 -6 6 -14.5t-6 -14.5t-15 -6t-15 6l-133 130q-16 16 -16 38t16.5 38t39.5 16.5t39 -15.5l143 -140
q26 -26 26 -62.5t-26.5 -62.5t-64 -26t-63.5 26l-153 149q-24 23 -32.5 55t0 63.5t32.5 55t56.5 31.5t64.5 0t57 -32l142 -139q6 -6 6 -14.5t-6 -14.5t-14.5 -6t-14.5 6z" />
</svg>
