<?xml version="1.0" standalone="no"?>
<!DOCTYPE svg PUBLIC "-//W3C//DTD SVG 1.1//EN" "http://www.w3.org/Graphics/SVG/1.1/DTD/svg11.dtd" >
<svg xmlns="http://www.w3.org/2000/svg" xmlns:xlink="http://www.w3.org/1999/xlink" version="1.1" viewBox="-10 0 522 512">
   <path fill="currentColor"
d="M256 480q-61 0 -112.5 -30t-81.5 -81.5t-30 -112.5t30 -112.5t81.5 -81.5t112.5 -30t112.5 30t81.5 81.5t30 112.5t-30 112.5t-81.5 81.5t-112.5 30zM346 195v-20q0 -4 -3 -6.5t-7 -2.5l-115 13q-4 0 -7 3.5t-3 7.5v90q-5 -2 -11 -2q-14 0 -24 10t-10 24t10 24t23.5 10
t23.5 -9.5t11 -22.5v-93l89 -10v47q-5 -2 -11 -2q-14 0 -24 10t-10 24t10 23.5t23.5 9.5t23.5 -9t11 -22v-97z" />
</svg>
