<?xml version="1.0" standalone="no"?>
<!DOCTYPE svg PUBLIC "-//W3C//DTD SVG 1.1//EN" "http://www.w3.org/Graphics/SVG/1.1/DTD/svg11.dtd" >
<svg xmlns="http://www.w3.org/2000/svg" xmlns:xlink="http://www.w3.org/1999/xlink" version="1.1" viewBox="-10 0 522 512">
   <path fill="currentColor"
d="M256 288q-13 0 -22.5 -9.5t-9.5 -22.5t9.5 -22.5t22.5 -9.5t22.5 9.5t9.5 22.5t-9.5 22.5t-22.5 9.5zM256 352q-8 0 -17 -2q10 2 17 2t17 -2q-9 2 -17 2zM256 160q8 0 17 2q-10 -2 -17 -2t-17 2q9 -2 17 -2zM352 256q0 -31 -18 -55.5t-46 -34.5v-102q0 -13 -9.5 -22.5
t-22.5 -9.5t-22.5 9.5t-9.5 22.5v102q-28 10 -46 34.5t-18 55.5t18 55.5t46 34.5v102q0 13 9.5 22.5t22.5 9.5t22.5 -9.5t9.5 -22.5v-102q28 -10 46 -34.5t18 -55.5z" />
</svg>
