<?xml version="1.0" standalone="no"?>
<!DOCTYPE svg PUBLIC "-//W3C//DTD SVG 1.1//EN" "http://www.w3.org/Graphics/SVG/1.1/DTD/svg11.dtd" >
<svg xmlns="http://www.w3.org/2000/svg" xmlns:xlink="http://www.w3.org/1999/xlink" version="1.1" viewBox="-10 0 522 512">
   <path fill="currentColor"
d="M223 342l-30 -39l-65 81h256v-61l-64 -67zM128 64h256q27 0 45.5 18.5t18.5 45.5v256q0 27 -18.5 45.5t-45.5 18.5h-256q-27 0 -45.5 -18.5t-18.5 -45.5v-256q0 -27 18.5 -45.5t45.5 -18.5zM168 208q17 0 28.5 -11.5t11.5 -28.5t-11.5 -28.5t-28.5 -11.5t-28.5 11.5
t-11.5 28.5t11.5 28.5t28.5 11.5z" />
</svg>
