<?xml version="1.0" standalone="no"?>
<!DOCTYPE svg PUBLIC "-//W3C//DTD SVG 1.1//EN" "http://www.w3.org/Graphics/SVG/1.1/DTD/svg11.dtd" >
<svg xmlns="http://www.w3.org/2000/svg" xmlns:xlink="http://www.w3.org/1999/xlink" version="1.1" viewBox="-10 0 522 512">
   <path fill="currentColor"
d="M111 353h290v-121h49v181q0 25 -18 43t-43 18h-266q-25 0 -43 -17.5t-18 -43.5v-181h49v121zM474 159q-3 21 -18.5 35t-36 14t-36 -14t-18.5 -35q-3 21 -18.5 35t-36 14t-36 -14t-18.5 -35q-3 21 -18.5 35t-36 14t-36 -14t-18.5 -35q-3 21 -18.5 35t-36 14t-36 -14
t-18.5 -35v-24l38 -75q4 -9 14.5 -15.5t20.5 -6.5h290q10 0 20.5 6.5t14.5 15.5l38 75v24z" />
</svg>
