<?xml version="1.0" standalone="no"?>
<!DOCTYPE svg PUBLIC "-//W3C//DTD SVG 1.1//EN" "http://www.w3.org/Graphics/SVG/1.1/DTD/svg11.dtd" >
<svg xmlns="http://www.w3.org/2000/svg" xmlns:xlink="http://www.w3.org/1999/xlink" version="1.1" viewBox="-10 0 522 512">
   <path fill="currentColor"
d="M96 32h320q27 0 45.5 18.5t18.5 45.5v320q0 27 -18.5 45.5t-45.5 18.5h-320q-27 0 -45.5 -18.5t-18.5 -45.5v-320q0 -27 18.5 -45.5t45.5 -18.5zM96 96v64h128v-64h-128zM96 224v64h320v-64h-320zM96 352v64h128v-64h-128zM288 352v64h128v-64h-128zM288 96v64h128v-64
h-128z" />
</svg>
