<?xml version="1.0" standalone="no"?>
<!DOCTYPE svg PUBLIC "-//W3C//DTD SVG 1.1//EN" "http://www.w3.org/Graphics/SVG/1.1/DTD/svg11.dtd" >
<svg xmlns="http://www.w3.org/2000/svg" xmlns:xlink="http://www.w3.org/1999/xlink" version="1.1" viewBox="-10 0 522 512">
   <path fill="currentColor"
d="M105 113h302q27 0 45.5 18.5t18.5 45.5v158q0 27 -18.5 45.5t-45.5 18.5h-302q-27 0 -45.5 -18.5t-18.5 -45.5v-158q0 -27 18.5 -45.5t45.5 -18.5zM89 160v192h334v-192h-334zM224 312l-33 -34q-7 -6 -7 -15t6.5 -15.5t15.5 -6.5t16 6l18 18l50 -50q7 -7 16 -7t15.5 6.5
t6.5 15.5t-7 16l-66 66q-6 6 -15 6t-16 -6z" />
</svg>
