<?xml version="1.0" standalone="no"?>
<!DOCTYPE svg PUBLIC "-//W3C//DTD SVG 1.1//EN" "http://www.w3.org/Graphics/SVG/1.1/DTD/svg11.dtd" >
<svg xmlns="http://www.w3.org/2000/svg" xmlns:xlink="http://www.w3.org/1999/xlink" version="1.1" viewBox="-10 0 522 512">
   <path fill="currentColor"
d="M137 115v238q0 9 7 16.5t17 7.5h190q10 0 17 -7t7 -17v-238q0 -10 -7 -17t-17 -7h-190q-10 0 -17 7t-7 17zM208 448v20l-35 -20l-36 20v-48q-21 -7 -34 -25.5t-13 -41.5v-238q0 -29 20.5 -50t50.5 -21h190q30 0 50.5 21t20.5 50v238q0 29 -20.5 50t-50.5 21h-143v24z
M208 495h-71h71zM185 139v95h142v-95h-142zM185 281v48h142v-48h-142z" />
</svg>
