<?xml version="1.0" standalone="no"?>
<!DOCTYPE svg PUBLIC "-//W3C//DTD SVG 1.1//EN" "http://www.w3.org/Graphics/SVG/1.1/DTD/svg11.dtd" >
<svg xmlns="http://www.w3.org/2000/svg" xmlns:xlink="http://www.w3.org/1999/xlink" version="1.1" viewBox="-10 0 522 512">
   <path fill="currentColor"
d="M192 288q-13 0 -22.5 -9.5t-9.5 -22.5t9.5 -22.5t22.5 -9.5t22.5 9.5t9.5 22.5t-9.5 22.5t-22.5 9.5zM192 32q-13 0 -22.5 9.5t-9.5 22.5v102q-28 10 -46 34.5t-18 55.5t18 55.5t46 34.5v102q0 13 9.5 22.5t22.5 9.5t22.5 -9.5t9.5 -22.5v-102q28 -10 46 -34.5t18 -55.5
t-18 -55.5t-46 -34.5v-102q0 -13 -9.5 -22.5t-22.5 -9.5zM320 32q-13 0 -22.5 9.5t-9.5 22.5v101q24 25 32 59q14 0 23 9.5t9 22.5t-9 22.5t-23 9.5q-8 34 -32 59v101q0 13 9.5 22.5t22.5 9.5t22.5 -9.5t9.5 -22.5v-102q28 -10 46 -34.5t18 -55.5t-18 -55.5t-46 -34.5v-102
q0 -13 -9.5 -22.5t-22.5 -9.5z" />
</svg>
