<?xml version="1.0" standalone="no"?>
<!DOCTYPE svg PUBLIC "-//W3C//DTD SVG 1.1//EN" "http://www.w3.org/Graphics/SVG/1.1/DTD/svg11.dtd" >
<svg xmlns="http://www.w3.org/2000/svg" xmlns:xlink="http://www.w3.org/1999/xlink" version="1.1" viewBox="-10 0 522 512">
   <path fill="currentColor"
d="M249 411q-44 0 -81.5 -21.5t-59.5 -59t-22 -81.5t22 -81.5t59.5 -59.5t81.5 -22v163l115 115q-23 22 -52.5 34.5t-62.5 12.5zM249 32q-59 0 -109 29t-79 79t-29 109t29 108.5t79 79t109 29.5q55 0 102.5 -26t77.5 -70.5t35 -98.5q2 -11 2 -22q0 -59 -29.5 -109t-79 -79
t-108.5 -29z" />
</svg>
