<?xml version="1.0" standalone="no"?>
<!DOCTYPE svg PUBLIC "-//W3C//DTD SVG 1.1//EN" "http://www.w3.org/Graphics/SVG/1.1/DTD/svg11.dtd" >
<svg xmlns="http://www.w3.org/2000/svg" xmlns:xlink="http://www.w3.org/1999/xlink" version="1.1" viewBox="-10 0 522 512">
   <path fill="currentColor"
d="M327 205q13 0 22 -9q7 -7 9 -17t-3 -19h13v64q0 13 9.5 22.5t22.5 9.5t22.5 -9.5t9.5 -22.5v-64q0 -26 -19 -45t-45 -19h-13q5 -9 3 -19t-9 -17q-9 -9 -22.5 -9t-22.5 9l-45 45q-10 10 -10 23t10 23l45 45q9 9 23 9zM144 128q0 -13 -9.5 -22.5t-22.5 -9.5t-22.5 9.5
t-9.5 22.5t9.5 22.5t22.5 9.5t22.5 -9.5t9.5 -22.5zM208 128q0 31 -18 55.5t-46 34.5v230q0 13 -9.5 22.5t-22.5 9.5t-22.5 -9.5t-9.5 -22.5v-230q-28 -10 -46 -34.5t-18 -55.5q0 -40 28 -68t68 -28t68 28t28 68zM496 384q0 13 -9.5 22.5t-22.5 9.5h-32v32q0 13 -9.5 22.5
t-22.5 9.5t-22.5 -9.5t-9.5 -22.5v-32h-32q-13 0 -22.5 -9.5t-9.5 -22.5t9.5 -22.5t22.5 -9.5h32v-32q0 -13 9.5 -22.5t22.5 -9.5t22.5 9.5t9.5 22.5v32h32q13 0 22.5 9.5t9.5 22.5z" />
</svg>
