<?xml version="1.0" standalone="no"?>
<!DOCTYPE svg PUBLIC "-//W3C//DTD SVG 1.1//EN" "http://www.w3.org/Graphics/SVG/1.1/DTD/svg11.dtd" >
<svg xmlns="http://www.w3.org/2000/svg" xmlns:xlink="http://www.w3.org/1999/xlink" version="1.1" viewBox="-10 0 522 512">
   <path fill="currentColor"
d="M103 102q0 -27 19 -45.5t45 -18.5h178q26 0 45 18.5t19 45.5v308q0 27 -19 45.5t-45 18.5h-178q-26 0 -45 -18.5t-19 -45.5v-308zM169 147q0 9 6.5 15.5t15.5 6.5h130q9 0 15.5 -6.5t6.5 -15.5t-6.5 -15.5t-15.5 -6.5h-130q-9 0 -15.5 6.5t-6.5 15.5zM169 212
q0 9 6.5 15.5t15.5 6.5h65q9 0 15.5 -6.5t6.5 -15.5t-6.5 -15t-15.5 -6h-65q-9 0 -15.5 6t-6.5 15zM169 278q0 9 6.5 15.5t15.5 6.5h65q9 0 15.5 -6.5t6.5 -15.5t-6.5 -15.5t-15.5 -6.5h-65q-9 0 -15.5 6.5t-6.5 15.5zM169 343q0 9 6.5 15.5t15.5 6.5h65q9 0 15.5 -6.5
t6.5 -15.5t-6.5 -15.5t-15.5 -6.5h-65q-9 0 -15.5 6.5t-6.5 15.5zM300 278q0 9 6 15.5t15 6.5t15.5 -6.5t6.5 -15.5t-6.5 -15.5t-15.5 -6.5t-15 6.5t-6 15.5zM300 343q0 9 6 15.5t15 6.5t15.5 -6.5t6.5 -15.5t-6.5 -15.5t-15.5 -6.5t-15 6.5t-6 15.5zM300 212q0 9 6 15.5
t15 6.5t15.5 -6.5t6.5 -15.5t-6.5 -15t-15.5 -6t-15 6t-6 15z" />
</svg>
