<?xml version="1.0" standalone="no"?>
<!DOCTYPE svg PUBLIC "-//W3C//DTD SVG 1.1//EN" "http://www.w3.org/Graphics/SVG/1.1/DTD/svg11.dtd" >
<svg xmlns="http://www.w3.org/2000/svg" xmlns:xlink="http://www.w3.org/1999/xlink" version="1.1" viewBox="-10 0 522 512">
   <path fill="currentColor"
d="M65 320q0 -27 19 -45.5t45 -18.5h161q26 0 45 18.5t19 45.5v91q0 29 -45 46q-41 15 -99.5 15t-99.5 -15q-45 -17 -45 -46v22v-113zM210 232q-40 0 -68.5 -28t-28.5 -68t28.5 -68t68 -28t68 28t28.5 68t-28.5 68t-67.5 28zM361 191l31 -31l-31 -31q-7 -7 -7 -17t7 -17
t17 -7t17 7l42 42q10 9 10 22.5t-10 23.5l-42 42q-7 7 -17 7t-17 -7t-7 -17t7 -17z" />
</svg>
