<?xml version="1.0" standalone="no"?>
<!DOCTYPE svg PUBLIC "-//W3C//DTD SVG 1.1//EN" "http://www.w3.org/Graphics/SVG/1.1/DTD/svg11.dtd" >
<svg xmlns="http://www.w3.org/2000/svg" xmlns:xlink="http://www.w3.org/1999/xlink" version="1.1" viewBox="-10 0 522 512">
   <path fill="currentColor"
d="M242 99q17 -17 39.5 -26t46.5 -9q36 0 67 20l1 -2q7 -7 17.5 -7t17.5 7t7 17t-7 17l-2 2q24 36 19.5 79t-34.5 74l-7 7q-19 18 -40.5 48t-33.5 54l-29 59q-5 9 -13 10t-15 -6l-206 -206q-8 -7 -6.5 -15.5t10.5 -12.5l59 -30q23 -11 53.5 -33t48.5 -40zM158 54l10 24
q4 9 0 18t-13 13t-18.5 0t-13.5 -13l-9 -23q-4 -9 -0.5 -18.5t13 -13t18.5 0t13 12.5zM73 114l23 9q9 4 13 13.5t0 18.5t-13 13t-18 0l-24 -10q-9 -4 -12.5 -13t0 -18.5t13 -13t18.5 0.5zM358 403q4 -2 9 -2q7 0 13.5 4t8.5 11l10 23q4 9 0 18.5t-13 13t-18.5 0t-12.5 -12.5
l-10 -24q-4 -9 0 -18t13 -13zM403 358q3 -7 9 -11t13 -4q5 0 9 2l24 10q9 3 12.5 12.5t0 18.5t-13 13t-18.5 0l-23 -10q-9 -3 -13 -12.5t0 -18.5zM123 393q-14 -14 -14 -34t14 -34l69 68q-14 14 -34 14t-35 -14z" />
</svg>
