<?xml version="1.0" standalone="no"?>
<!DOCTYPE svg PUBLIC "-//W3C//DTD SVG 1.1//EN" "http://www.w3.org/Graphics/SVG/1.1/DTD/svg11.dtd" >
<svg xmlns="http://www.w3.org/2000/svg" xmlns:xlink="http://www.w3.org/1999/xlink" version="1.1" viewBox="-10 0 522 512">
   <path fill="currentColor"
d="M128 192h80q0 -22 8 -37q6 -12 16 -19q8 -5 17 -7l7 -1q25 0 40 14.5t11 35.5q-5 23 -35 46q-24 16 -34 28.5t-12 28.5q-2 11 -2 39v6v26h64q0 -29 2 -40q2 -16 12 -28t34 -28q31 -21 41 -46q7 -17 7 -50q0 -47 -33.5 -71.5t-94.5 -24.5q-54 0 -88 28q-40 33 -40 100z
M288 448v-64h-64v64h64z" />
</svg>
