<?xml version="1.0" standalone="no"?>
<!DOCTYPE svg PUBLIC "-//W3C//DTD SVG 1.1//EN" "http://www.w3.org/Graphics/SVG/1.1/DTD/svg11.dtd" >
<svg xmlns="http://www.w3.org/2000/svg" xmlns:xlink="http://www.w3.org/1999/xlink" version="1.1" viewBox="-10 0 522 512">
   <path fill="currentColor"
d="M413 352h-314q-15 0 -25 9.5t-10 22.5t10 22.5t25 9.5h314q15 0 25 -9.5t10 -22.5t-10 -22.5t-25 -9.5zM413 224h-314q-15 0 -25 9.5t-10 22.5t10 22.5t25 9.5h314q15 0 25 -9.5t10 -22.5t-10 -22.5t-25 -9.5zM64 128q0 -13 10 -22.5t25 -9.5h314q15 0 25 9.5t10 22.5
t-10 22.5t-25 9.5h-314q-15 0 -25 -9.5t-10 -22.5z" />
</svg>
