<?xml version="1.0" standalone="no"?>
<!DOCTYPE svg PUBLIC "-//W3C//DTD SVG 1.1//EN" "http://www.w3.org/Graphics/SVG/1.1/DTD/svg11.dtd" >
<svg xmlns="http://www.w3.org/2000/svg" xmlns:xlink="http://www.w3.org/1999/xlink" version="1.1" viewBox="-10 0 522 512">
   <path fill="currentColor"
d="M144 396v-61q0 -24 16.5 -40t39.5 -16h112q23 0 39.5 16t16.5 40v61q31 -25 49 -61.5t18 -78.5q0 -49 -24 -90t-65 -65t-90 -24t-90 24t-65 65t-24 90q0 42 18 78.5t49 61.5zM256 480q-61 0 -112.5 -30t-81.5 -81.5t-30 -112.5t30 -112.5t81.5 -81.5t112.5 -30t112.5 30
t81.5 81.5t30 112.5t-30 112.5t-81.5 81.5t-112.5 30zM256 256q-28 0 -47.5 -19.5t-19.5 -47.5t19.5 -47.5t47.5 -19.5t47.5 19.5t19.5 47.5t-19.5 47.5t-47.5 19.5z" />
</svg>
