<?xml version="1.0" standalone="no"?>
<!DOCTYPE svg PUBLIC "-//W3C//DTD SVG 1.1//EN" "http://www.w3.org/Graphics/SVG/1.1/DTD/svg11.dtd" >
<svg xmlns="http://www.w3.org/2000/svg" xmlns:xlink="http://www.w3.org/1999/xlink" version="1.1" viewBox="-10 0 522 512">
   <path fill="currentColor"
d="M171 212q7 26 27 44h-7q-28 0 -47 19t-19 46v65q-37 -3 -61 -15q-26 -13 -26 -34v-81q0 -18 12.5 -31t30.5 -13h90zM341 212h90q18 0 30.5 13t12.5 31v81q0 21 -26 34q-24 12 -61 15v-65q0 -27 -19 -46t-47 -19h-7q20 -18 27 -44zM212 115q-19 11 -30.5 30t-12.5 42
q-11 4 -22 4q-27 0 -46.5 -19.5t-19.5 -46.5t19.5 -46t46.5 -19q24 0 42.5 15.5t22.5 39.5zM343 187q-1 -23 -12.5 -42t-30.5 -30q4 -24 22.5 -39.5t42.5 -15.5q27 0 46.5 19t19.5 46t-19.5 46.5t-46.5 19.5q-11 0 -22 -4zM147 321q0 -18 12.5 -30.5t31.5 -12.5h130
q19 0 31.5 12.5t12.5 30.5v82q0 23 -34 37q-31 12 -75 12t-75 -12q-34 -14 -34 -37v-82zM256 256q-27 0 -46 -19t-19 -46.5t19 -46.5t46 -19t46 19t19 46.5t-19 46.5t-46 19z" />
</svg>
