<?xml version="1.0" standalone="no"?>
<!DOCTYPE svg PUBLIC "-//W3C//DTD SVG 1.1//EN" "http://www.w3.org/Graphics/SVG/1.1/DTD/svg11.dtd" >
<svg xmlns="http://www.w3.org/2000/svg" xmlns:xlink="http://www.w3.org/1999/xlink" version="1.1" viewBox="-10 0 522 512">
   <path fill="currentColor"
d="M256 435q49 0 90 -24t65 -65t24 -90t-24 -90t-65 -65t-90 -24t-90 24t-65 65t-24 90t24 90t65 65t90 24zM256 480q-61 0 -112.5 -30t-81.5 -81.5t-30 -112.5t30 -112.5t81.5 -81.5t112.5 -30t112.5 30t81.5 81.5t30 112.5t-30 112.5t-81.5 81.5t-112.5 30zM205 240
q-7 -6 -16 -6t-16 6.5t-7 15.5t7 16l45 45q6 6 15.5 6t15.5 -6l90 -90q7 -7 7 -16t-7 -15.5t-16 -6.5t-16 6l-73 74z" />
</svg>
