<?xml version="1.0" standalone="no"?>
<!DOCTYPE svg PUBLIC "-//W3C//DTD SVG 1.1//EN" "http://www.w3.org/Graphics/SVG/1.1/DTD/svg11.dtd" >
<svg xmlns="http://www.w3.org/2000/svg" xmlns:xlink="http://www.w3.org/1999/xlink" version="1.1" viewBox="-10 0 522 512">
   <path fill="currentColor"
d="M256 480q-61 0 -112.5 -30t-81.5 -81.5t-30 -112.5t30 -112.5t81.5 -81.5t112.5 -30t112.5 30t81.5 81.5t30 112.5t-30 112.5t-81.5 81.5t-112.5 30zM281 380q0 -10 -7.5 -17t-17.5 -7t-17.5 7t-7.5 17.5t7.5 17.5t17.5 7t17.5 -7t7.5 -18zM343 194q0 -36 -25.5 -61.5
t-61.5 -25.5t-61.5 25.5t-25.5 61.5q0 10 7 17.5t17.5 7.5t18 -7.5t7.5 -17.5q0 -16 11 -27t26 -11t26 11t11 26.5t-11 26.5t-26 11q-10 0 -17.5 7.5t-7.5 17.5v50q0 10 7.5 17.5t17.5 7.5t17.5 -7.5t7.5 -17.5v-29q27 -8 44.5 -31t17.5 -52z" />
</svg>
