<?xml version="1.0" standalone="no"?>
<!DOCTYPE svg PUBLIC "-//W3C//DTD SVG 1.1//EN" "http://www.w3.org/Graphics/SVG/1.1/DTD/svg11.dtd" >
<svg xmlns="http://www.w3.org/2000/svg" xmlns:xlink="http://www.w3.org/1999/xlink" version="1.1" viewBox="-10 0 522 512">
   <path fill="currentColor"
d="M270 245q-27 19 -43 48.5t-16 64.5q0 49 31 86q-41 7 -85.5 3t-72.5 -18q-32 -15 -32 -38v21v-104q0 -26 19 -44.5t45 -18.5h144h10zM188 222q-37 0 -64 -26.5t-27 -64t27 -64t64.5 -26.5t64 26.5t26.5 64t-26.5 64t-64.5 26.5zM347 471q-31 0 -57 -15t-41.5 -41
t-15.5 -57t15.5 -57t41.5 -41t56.5 -15t56.5 15t41.5 41t15.5 57t-15.5 57t-41.5 41t-56 15zM317 411q6 6 14.5 6t14.5 -6l62 -63q7 -6 7 -14.5t-6.5 -14.5t-15 -6t-14.5 6l-48 48l-17 -18q-6 -6 -14.5 -6t-14.5 6.5t-6 15t6 14.5z" />
</svg>
