<?xml version="1.0" standalone="no"?>
<!DOCTYPE svg PUBLIC "-//W3C//DTD SVG 1.1//EN" "http://www.w3.org/Graphics/SVG/1.1/DTD/svg11.dtd" >
<svg xmlns="http://www.w3.org/2000/svg" xmlns:xlink="http://www.w3.org/1999/xlink" version="1.1" viewBox="-10 0 522 512">
   <path fill="currentColor"
d="M354 192h-34q-9 0 -15 -6.5t-6 -15t6 -15t15 -6.5h85q9 0 15.5 6.5t6.5 15.5v85q0 9 -6.5 15t-15 6t-15 -6t-6.5 -15v-34l-70 70q-6 7 -15 7t-15 -7l-49 -49l-71 71q-6 6 -15 6t-15 -6t-6 -15t6 -15l86 -86q6 -6 14.5 -6t15.5 6l49 49zM448 363q9 0 15.5 6t6.5 15
t-6.5 15t-15.5 6h-342q-26 0 -45 -18.5t-19 -45.5v-213q0 -9 6.5 -15t15.5 -6t15 6t6 15v213q0 9 6.5 15.5t14.5 6.5h342z" />
</svg>
