<?xml version="1.0" standalone="no"?>
<!DOCTYPE svg PUBLIC "-//W3C//DTD SVG 1.1//EN" "http://www.w3.org/Graphics/SVG/1.1/DTD/svg11.dtd" >
<svg xmlns="http://www.w3.org/2000/svg" xmlns:xlink="http://www.w3.org/1999/xlink" version="1.1" viewBox="-10 0 522 512">
   <path fill="currentColor"
d="M448 192v-5q0 -27 -19 -46l-90 -90q-19 -19 -46 -19h-165q-26 0 -45 19t-19 45v320q0 26 19 45t45 19h256q26 0 45 -19t19 -45v-192h-64v192h-256v-320h160v64q0 13 9.5 22.5t22.5 9.5h128zM352 320q0 13 -9.5 22.5t-22.5 9.5h-128q-13 0 -22.5 -9.5t-9.5 -22.5
t9.5 -22.5t22.5 -9.5h128q13 0 22.5 9.5t9.5 22.5z" />
</svg>
