<?xml version="1.0" standalone="no"?>
<!DOCTYPE svg PUBLIC "-//W3C//DTD SVG 1.1//EN" "http://www.w3.org/Graphics/SVG/1.1/DTD/svg11.dtd" >
<svg xmlns="http://www.w3.org/2000/svg" xmlns:xlink="http://www.w3.org/1999/xlink" version="1.1" viewBox="-10 0 522 512">
   <path fill="currentColor"
d="M256 473h-169q-20 0 -34 -14t-14 -34v-338q0 -20 14 -34t34 -14h169v48h-170v338h170v48zM220 280l29 30v0q7 8 7 18t-7.5 17.5t-18 7t-17.5 -7.5l-71 -72q-7 -7 -7 -17.5t8 -17.5l70 -71q7 -8 17.5 -8t18 7.5t7.5 17.5t-7 18l-29 30h229q10 0 17.5 7t7.5 17t-7.5 17
t-17.5 7h-229z" />
</svg>
