<?xml version="1.0" standalone="no"?>
<!DOCTYPE svg PUBLIC "-//W3C//DTD SVG 1.1//EN" "http://www.w3.org/Graphics/SVG/1.1/DTD/svg11.dtd" >
<svg xmlns="http://www.w3.org/2000/svg" xmlns:xlink="http://www.w3.org/1999/xlink" version="1.1" viewBox="-10 0 522 512">
   <path fill="currentColor"
d="M55 370q56 -95 135 -111q71 -13 167 35l89 45q6 2 8 7.5t-1 10.5l-42 101q-3 5 -8.5 7t-10.5 0l-89 -44q-35 -18 -55 -22q-25 -6 -44 4t-36 39l-13 23q-3 6 -8.5 7t-10.5 -2l-90 -57q-5 -3 -6 -9t2 -11zM457 142q-56 95 -135 111q-71 14 -167 -35l-90 -44q-5 -3 -7 -8.5
t0 -10.5l43 -100q2 -6 7.5 -8t11.5 1l88 43q36 18 56 22q25 6 43.5 -4t35.5 -39l14 -23q3 -6 8.5 -7t10.5 2l90 57q5 3 6 9t-2 11z" />
</svg>
