<?xml version="1.0" standalone="no"?>
<!DOCTYPE svg PUBLIC "-//W3C//DTD SVG 1.1//EN" "http://www.w3.org/Graphics/SVG/1.1/DTD/svg11.dtd" >
<svg xmlns="http://www.w3.org/2000/svg" xmlns:xlink="http://www.w3.org/1999/xlink" version="1.1" viewBox="-10 0 522 512">
   <path fill="currentColor"
d="M103 101q0 -26 19 -45t45 -19h178q27 0 45.5 19t18.5 45v310q0 26 -19 45t-45 19h-178q-27 0 -45.5 -19t-18.5 -45v-310zM169 147q0 9 6 15t16 6h130q10 0 16 -6t6 -15.5t-6 -15.5t-16 -6h-130q-10 0 -16 6t-6 16zM169 212q0 9 6 15.5t16 6.5h130q10 0 16 -6.5t6 -15.5
t-6 -15.5t-16 -6.5h-130q-10 0 -16 6.5t-6 15.5zM169 278q0 9 6 15.5t16 6.5h43q9 0 15.5 -6.5t6.5 -15.5t-6.5 -15.5t-15.5 -6.5h-43q-9 0 -15.5 6.5t-6.5 15.5z" />
</svg>
