<?xml version="1.0" standalone="no"?>
<!DOCTYPE svg PUBLIC "-//W3C//DTD SVG 1.1//EN" "http://www.w3.org/Graphics/SVG/1.1/DTD/svg11.dtd" >
<svg xmlns="http://www.w3.org/2000/svg" xmlns:xlink="http://www.w3.org/1999/xlink" version="1.1" viewBox="-10 0 522 512">
   <path fill="currentColor"
d="M192 384h-32q-13 0 -22.5 -9.5t-9.5 -22.5v-288q0 -13 9.5 -22.5t22.5 -9.5h96q13 0 22.5 9.5t9.5 22.5v32h-96v288zM224 160q0 -13 9.5 -22.5t22.5 -9.5h96q13 0 22.5 9.5t9.5 22.5v288q0 13 -9.5 22.5t-22.5 9.5h-96q-13 0 -22.5 -9.5t-9.5 -22.5v-288zM288 192v224h32
v-224h-32z" />
</svg>
