<?xml version="1.0" standalone="no"?>
<!DOCTYPE svg PUBLIC "-//W3C//DTD SVG 1.1//EN" "http://www.w3.org/Graphics/SVG/1.1/DTD/svg11.dtd" >
<svg xmlns="http://www.w3.org/2000/svg" xmlns:xlink="http://www.w3.org/1999/xlink" version="1.1" viewBox="-10 0 522 512">
   <path fill="currentColor"
d="M409 311q-9 -10 -22 -10t-23 10q-6 6 -8 15t1 18h-85v-224q-26 0 -45 19t-19 45v48h-160q-13 0 -22.5 9.5t-9.5 22.5t9.5 22.5t22.5 9.5h160v48q0 26 19 45t45 19h88q-6 9 -5 20t9 19q10 9 23 9t22 -9l46 -46q9 -9 9 -22t-9 -23zM496 152q0 13 -9.5 22.5t-22.5 9.5h-32
v32q0 13 -9.5 22.5t-22.5 9.5t-22.5 -9.5t-9.5 -22.5v-32h-32q-13 0 -22.5 -9.5t-9.5 -22.5t9.5 -22.5t22.5 -9.5h32v-32q0 -13 9.5 -22.5t22.5 -9.5t22.5 9.5t9.5 22.5v32h32q13 0 22.5 9.5t9.5 22.5z" />
</svg>
